#!OML:ASF G:\JayActor3\Patient Classification 1\Patient 1\Session 2\male.ASF
:FULLY-SPECIFIED
:DEGREES
1138
root 36.9423 16.5071 -7.7806 10.3407 -68.364 24.0367
lowerback 28.6371 -1.30538 4.5404
upperback 14.4961 -1.54258 5.34949
thorax 0.655781 -1.17972 3.70523
lowerneck -7.6195 -4.43894 -2.94352
upperneck -12.9156 -5.98515 3.40776
head -2.63424 -3.1738 1.59564
rclavicle -2.38542e-014 -5.92378e-014
rhumerus -14.8355 12.8489 -51.7063
rradius 80.0318
rwrist -13.1192
rhand -32.6801 7.04887
rfingers 7.12502
rthumb -5.90535 -22.8488
lclavicle -2.38542e-014 -5.92378e-014
lhumerus -13.6816 -8.32242 56.9736
lradius 91.6705
lwrist 27.2937
lhand -21.8018 18.4817
lfingers 7.12502
lthumb 4.60013 48.4118
rfemur -65.9937 0.950037 1.95883
rtibia 53.3195
rfoot -17.5665 -8.594
rtoes 10.1814
lfemur -21.953 9.81644 -25.0359
ltibia 24.9778
lfoot -2.56969 -8.48662
ltoes -22.7166
1139
root 36.7185 16.3624 -7.7968 8.86634 -68.2834 24.6414
lowerback 28.8676 -1.25196 4.19176
upperback 14.6217 -1.56629 5.33493
thorax 0.701227 -1.21723 3.9018
lowerneck -7.51332 -4.52949 -3.01872
upperneck -12.9408 -6.08666 3.61278
head -2.64948 -3.22641 1.67817
rclavicle -3.18055e-014 -3.18055e-015
rhumerus -15.5082 13.308 -53.2747
rradius 80.1609
rwrist -12.7602
rhand -32.7055 7.15654
rfingers 7.12502
rthumb -5.92985 -22.7405
lclavicle -3.18055e-014 -3.18055e-015
lhumerus -16.1925 -8.73177 59.7135
lradius 90.3252
lwrist 26.8187
lhand -21.9439 18.2553
lfingers 7.12502
lthumb 4.46296 48.1882
rfemur -65.4281 0.394398 2.96287
rtibia 55.2206
rfoot -18.1351 -7.63708
rtoes 11.3088
lfemur -21.6214 9.84279 -24.5116
ltibia 27.8663
lfoot -3.42666 -8.99836
ltoes -23.3399
1140
root 36.4978 16.2292 -7.81424 7.79198 -68.1173 24.8504
lowerback 29.054 -1.24014 4.00715
upperback 14.7348 -1.60456 5.30182
thorax 0.751525 -1.25115 3.98671
lowerneck -7.43394 -4.61231 -3.07429
upperneck -13.022 -6.17189 3.89861
head -2.67755 -3.27487 1.78495
rclavicle -3.81667e-014 4.37326e-015
rhumerus -16.2649 13.6573 -54.9026
rradius 80.2966
rwrist -12.3848
rhand -32.734 7.27177
rfingers 7.12502
rthumb -5.95744 -22.6245
lclavicle -3.81667e-014 4.37326e-015
lhumerus -18.7039 -8.81455 62.3445
lradius 88.8012
lwrist 26.4134
lhand -22.2027 18.0578
lfingers 7.12502
lthumb 4.21301 47.9958
rfemur -64.6948 0.11032 3.92543
rtibia 57.0727
rfoot -19.41 -6.97308
rtoes 12.1643
lfemur -21.736 9.84626 -23.8876
ltibia 31.3474
lfoot -4.13412 -9.16007
ltoes -23.9619
1141
root 36.2799 16.1141 -7.8321 7.52008 -67.9154 24.3575
lowerback 29.1645 -1.24856 4.07982
upperback 14.8074 -1.60542 5.30963
thorax 0.786987 -1.25292 3.95755
lowerneck -7.39267 -4.69592 -3.14282
upperneck -13.1366 -6.25417 4.22211
head -2.70879 -3.32324 1.90655
rclavicle -8.74653e-014 3.61788e-014
rhumerus -17.0582 13.8712 -56.4749
rradius 80.4521
rwrist -12.0278
rhand -32.799 7.38345
rfingers 7.12502
rthumb -6.02019 -22.511
lclavicle -8.74653e-014 3.61788e-014
lhumerus -21.1597 -8.58266 64.8663
lradius 87.0896
lwrist 26.0968
lhand -22.5645 17.9852
lfingers 7.12502
lthumb 3.86364 47.93
rfemur -63.9333 0.144723 4.93456
rtibia 58.7065
rfoot -21.085 -6.72203
rtoes 12.7029
lfemur -22.3778 9.77762 -23.0403
ltibia 35.2998
lfoot -4.63326 -8.90223
ltoes -24.7717
1142
root 36.0623 16.0215 -7.84829 8.12993 -67.7608 23.0682
lowerback 29.2669 -1.24709 4.42789
upperback 14.8487 -1.5261 5.38397
thorax 0.78772 -1.20353 3.8234
lowerneck -7.38924 -4.78064 -3.24418
upperneck -13.2793 -6.33625 4.54761
head -2.74197 -3.3711 2.0347
rclavicle -5.88403e-014 -3.22031e-014
rhumerus -17.8101 13.9587 -57.8951
rradius 80.6288
rwrist -11.7351
rhand -32.9277 7.46939
rfingers 7.12502
rthumb -6.14442 -22.4215
lclavicle -5.88403e-014 -3.22031e-014
lhumerus -23.5072 -8.0423 67.2668
lradius 85.185
lwrist 25.9061
lhand -23.0258 18.0398
lfingers 7.12502
lthumb 3.41823 47.9921
rfemur -63.1637 0.58633 6.01993
rtibia 60.0389
rfoot -22.8315 -6.8658
rtoes 13.2593
lfemur -23.462 9.66453 -21.9224
ltibia 39.5801
lfoot -4.92492 -8.25067
ltoes -25.9053
1143
root 35.8466 15.946 -7.86152 9.44031 -67.6672 21.212
lowerback 29.3661 -1.21866 4.96706
upperback 14.8547 -1.36337 5.52349
thorax 0.749632 -1.10614 3.63038
lowerneck -7.38668 -4.86685 -3.3847
upperneck -13.4691 -6.42169 4.84714
head -2.79054 -3.41955 2.1634
rclavicle 1.59028e-015 -1.27222e-014
rhumerus -18.4459 13.9581 -59.0897
rradius 80.8139
rwrist -11.5516
rhand -33.1402 7.53732
rfingers 7.12502
rthumb -6.34961 -22.3475
lclavicle 1.59028e-015 -1.27222e-014
lhumerus -25.7076 -7.22106 69.5356
lradius 83.0863
lwrist 25.8692
lhand -23.5711 18.2125
lfingers 7.12502
lthumb 2.89156 48.1726
rfemur -62.4617 1.29375 7.17044
rtibia 61.0904
rfoot -24.4231 -7.26949
rtoes 13.5704
lfemur -24.9788 9.49609 -20.6429
ltibia 44.0545
lfoot -5.04792 -7.44717
ltoes -27.0497
1144
root 35.6343 15.8831 -7.86917 11.0377 -67.6207 19.1991
lowerback 29.5017 -1.16232 5.5653
upperback 14.8346 -1.14474 5.69893
thorax 0.668664 -0.980862 3.43008
lowerneck -7.3314 -4.95203 -3.56361
upperneck -13.7323 -6.5087 5.11408
head -2.87339 -3.46795 2.29348
rclavicle 3.97569e-014 1.82882e-014
rhumerus -18.906 13.9335 -60.0029
rradius 80.9956
rwrist -11.5332
rhand -33.4276 7.58389
rfingers 7.12502
rthumb -6.62704 -22.2924
lclavicle 3.97569e-014 1.82882e-014
lhumerus -27.7391 -6.16083 71.6606
lradius 80.7943
lwrist 26.0189
lhand -24.1604 18.4245
lfingers 7.12502
lthumb 2.32247 48.3916
rfemur -61.8066 2.08433 8.29478
rtibia 61.9097
rfoot -25.8058 -7.7205
rtoes 13.5029
lfemur -26.8361 9.25966 -19.3938
ltibia 48.557
lfoot -5.13213 -6.71569
ltoes -27.8828
1145
root 35.4264 15.8314 -7.86852 12.4489 -67.6118 17.4841
lowerback 29.7082 -1.08371 6.07795
upperback 14.8024 -0.909305 5.86661
thorax 0.545241 -0.852836 3.26739
lowerneck -7.1754 -5.03456 -3.76586
upperneck -14.0859 -6.5957 5.35974
head -3.00544 -3.51676 2.42899
rclavicle -1.90833e-014 -4.73108e-014
rhumerus -19.1525 13.9294 -60.6393
rradius 81.149
rwrist -11.6652
rhand -33.7827 7.63035
rfingers 7.12502
rthumb -6.96979 -22.2349
lclavicle -1.90833e-014 -4.73108e-014
lhumerus -29.5968 -4.91946 73.6364
lradius 78.3192
lwrist 26.3647
lhand -24.7691 18.6239
lfingers 7.12502
lthumb 1.7346 48.5966
rfemur -61.1415 2.78097 9.27536
rtibia 62.5392
rfoot -27.011 -8.05234
rtoes 13.1688
lfemur -28.9351 8.95036 -18.3966
ltibia 52.9331
lfoot -5.34827 -6.19867
ltoes -28.4072
1146
root 35.2226 15.7928 -7.85849 13.3055 -67.6131 16.4337
lowerback 29.9686 -0.997491 6.39365
upperback 14.7714 -0.703444 5.99121
thorax 0.398989 -0.747759 3.17769
lowerneck -6.90823 -5.11394 -3.9717
upperneck -14.5147 -6.68186 5.59785
head -3.18438 -3.5665 2.57161
rclavicle 6.67916e-014 1.90833e-014
rhumerus -19.1692 13.9718 -61.0234
rradius 81.2573
rwrist -11.8984
rhand -34.1653 7.67156
rfingers 7.12502
rthumb -7.33915 -22.1812
lclavicle 6.67916e-014 1.90833e-014
lhumerus -31.2882 -3.57434 75.4627
lradius 75.6808
lwrist 26.8645
lhand -25.3955 18.7752
lfingers 7.12502
lthumb 1.1296 48.7519
rfemur -60.4289 3.24743 10.0025
rtibia 62.9865
rfoot -28.0608 -8.19606
rtoes 12.7837
lfemur -31.2081 8.53776 -17.8292
ltibia 57.0306
lfoot -5.81365 -5.91345
ltoes -28.733
1147
root 35.0227 15.7679 -7.84028 13.5716 -67.6129 16.1008
lowerback 30.2182 -0.905161 6.48661
upperback 14.7484 -0.542185 6.06644
thorax 0.263185 -0.672178 3.17053
lowerneck -6.55472 -5.19367 -4.17315
upperneck -14.971 -6.76917 5.84987
head -3.38951 -3.61817 2.72493
rclavicle -4.77083e-015 7.07673e-014
rhumerus -18.9646 14.0628 -61.1932
rradius 81.301
rwrist -12.1352
rhand -34.5549 7.74119
rfingers 7.12502
rthumb -7.7152 -22.0981
lclavicle -4.77083e-015 7.07673e-014
lhumerus -32.822 -2.22034 77.1483
lradius 72.9046
lwrist 27.4506
lhand -26.0102 18.9251
lfingers 7.12502
lthumb 0.535931 48.9042
rfemur -59.6935 3.44622 10.4667
rtibia 63.244
rfoot -28.9432 -8.16387
rtoes 12.4204
lfemur -33.6608 8.02774 -17.7315
ltibia 60.7535
lfoot -6.54379 -5.7886
ltoes -28.9918
